<svg xmlns="http://www.w3.org/2000/svg" viewBox="0 0 491.97 509.21"><path d="M240.79,309.68c-14.73-14.16-25.38-26.76-25.29-26.64S203.5,272,190,256.58a383.82,383.82,0,0,1-31.35-41c-11.28-17-11.34-42.64-2.07-56s28-39,24.81-59.15c-2.66-17-13.62-39.93-43.59-68.56C67.16-35.65,40.54,19.45,8.17,56.8S42.42,227.9,156.44,353.53,393,531.24,431.88,500.67,527,446,462.87,372.29C435.67,341,413.24,329,396.42,325.56c-20-4.12-46.48,13.38-60.24,22s-39.33,7.38-55.83-4.68A381.64,381.64,0,0,1,240.79,309.68Z"/></svg>
